<?xml version="1.0" encoding="utf-8"?>
<!-- Generator: Adobe Illustrator 19.2.0, SVG Export Plug-In . SVG Version: 6.00 Build 0)  -->
<svg version="1.1" id="Layer_1" xmlns="http://www.w3.org/2000/svg" xmlns:xlink="http://www.w3.org/1999/xlink" x="0px" y="0px"
	 viewBox="0 0 34 34" style="enable-background:new 0 0 34 34;" xml:space="preserve">
<style type="text/css">
	.st0{fill:#3D3D3D;stroke:#3D3D3D;stroke-width:0.2835;stroke-miterlimit:10;}
</style>
<g>
	<path class="st0" d="M29.3,0.3c-8.2,0-16.3,0-24.5,0c-2.6,0-4.4,1.8-4.4,4.4c0,8.2,0,16.3,0,24.5c0,2.6,1.8,4.4,4.4,4.4
		c4.1,0,8.2,0,12.3,0c3.1,0,6.1,0,9.2,0c1,0,2,0,3.1,0c0.4,0,0.8,0,1.2-0.1c2-0.5,3.2-2.1,3.2-4.2c0-8.2,0-16.4,0-24.6
		C33.7,2.2,31.9,0.3,29.3,0.3z M32.4,29.3c0,1.9-1.2,3.1-3.1,3.1c-4.1,0-8.2,0-12.3,0c-4.1,0-8.2,0-12.3,0c-1.3,0-2.2-0.5-2.8-1.7
		c-0.2-0.5-0.3-1-0.3-1.5c0-5.6,0-11.2,0-16.8c0-2.6,0-5.2,0-7.8c0-1.3,0.6-2.2,1.7-2.8c0.4-0.2,1-0.3,1.4-0.3c6.4,0,12.9,0,19.3,0
		c1.8,0,3.5,0,5.3,0c1.4,0,2.6,0.8,2.9,2.1c0.1,0.3,0.1,0.6,0.1,1C32.4,12.9,32.4,21.1,32.4,29.3z"/>
	<path class="st0" d="M17.2,5.3c-2.4,0-4.7,0-7.1,0c-0.8,0-1,0.2-1,1c0,3.6,0,7.2,0,10.7c0,3.6,0,7.2,0,10.8c0,0.6,0.2,0.9,0.9,0.9
		c1,0,2.1,0,3.1,0c0.6,0,0.8-0.2,0.8-0.8c0-1,0-2,0-3.1c0-1.3,0-2.6,0-3.9c0-0.3,0.1-0.4,0.3-0.4c0.4,0,0.7,0,1.1,0
		c1.1,0,2.2,0,3.3-0.1c4.3-0.7,7.1-5,6.1-9.2C23.8,7.7,20.8,5.3,17.2,5.3z M18.4,19.1c-0.7,0.1-1.4,0.1-2,0.1c-1,0-1.9,0-2.9,0
		c-0.7,0-0.9,0.2-0.9,0.9c0,2.3,0,4.5,0,6.8c0,0.5,0,0.5-0.5,0.5c-0.4,0-0.9,0-1.3,0c-0.3,0-0.4-0.1-0.4-0.4c0-2.6,0-5.1,0-7.7
		c0-0.8,0-1.6,0-2.3c0,0,0,0,0,0c0-3.3,0-6.6,0-9.9c0-0.5,0-0.5,0.5-0.5c2.1,0,4.2,0,6.3,0c3.2,0,5.7,2.2,6.3,5.3
		C24.1,15.2,21.8,18.5,18.4,19.1z"/>
	<path class="st0" d="M17.1,8.8c-1.2,0-2.4,0-3.6,0c-0.6,0-0.8,0.2-0.8,0.8c0,1.1,0,2.2,0,3.3c0,1.1,0,2.1,0,3.2
		c0,0.8,0.2,0.9,0.9,0.9c1.2,0,2.3,0,3.5,0c0.3,0,0.5,0,0.8,0c2.2-0.4,3.6-2.2,3.5-4.5C21.1,10.4,19.3,8.8,17.1,8.8z M17.1,15.7
		c-0.9,0-1.9,0-2.8,0c-0.3,0-0.4-0.1-0.4-0.4c0-0.8,0-1.6,0-2.4c0,0,0,0,0,0c0-0.8,0-1.6,0-2.5c0-0.2,0.1-0.3,0.3-0.3c1,0,2,0,3,0
		c1.6,0,2.8,1.3,2.8,2.8C20,14.5,18.7,15.7,17.1,15.7z"/>
</g>
</svg>
