<?xml version="1.0" encoding="utf-8"?>
<!-- Generator: Adobe Illustrator 19.2.0, SVG Export Plug-In . SVG Version: 6.00 Build 0)  -->
<svg version="1.1" xmlns="http://www.w3.org/2000/svg" xmlns:xlink="http://www.w3.org/1999/xlink" x="0px" y="0px"
	 viewBox="0 0 34 34" style="enable-background:new 0 0 34 34;" xml:space="preserve">
<style type="text/css">
	.st0{fill:#3D3D3D;}
	.st1{fill:none;}
</style>
<g id="Layer_2_copy">
	<g>
		<path class="st0" d="M17,27.2c1.8,0,3.4,1.6,3.3,3.4c0,1.8-1.6,3.4-3.4,3.4c-1.8,0-3.4-1.6-3.4-3.4C13.6,28.7,15.2,27.2,17,27.2z
			 M17,32.6c1.1,0,2-0.9,2-2c0-1.1-0.9-2.1-2-2.1c-1.1,0-2,0.9-2,2C14.9,31.7,15.9,32.6,17,32.6z"/>
	</g>
</g>
<g id="Layer_3">
	<g>
		<path class="st0" d="M22.4,20.9c-1.9,0-3.4,1.5-3.4,3.4c0,1.8,1.5,3.4,3.4,3.4c1.8,0,3.4-1.5,3.4-3.4
			C25.7,22.4,24.2,20.9,22.4,20.9z M22.3,26.3c-1.1,0-2-0.9-2-2c0,0,0,0,0,0c0,0,0,0,0,0c0-0.1,0-0.1,0-0.2c0-0.1,0-0.1,0-0.2
			c0-0.1,0-0.1,0-0.2c0-0.1,0-0.2,0.1-0.2c0,0,0-0.1,0-0.1c0-0.1,0.1-0.2,0.2-0.3c0,0,0.1-0.1,0.1-0.1c0-0.1,0.1-0.1,0.1-0.2
			c0.4-0.4,0.9-0.6,1.4-0.6c0.6,0,1.2,0.3,1.6,0.8c0.3,0.3,0.4,0.8,0.4,1.3C24.4,25.4,23.4,26.3,22.3,26.3z"/>
		<g>
			<path class="st1" d="M20.2,24c0-0.1,0-0.1,0-0.2c0-0.1,0-0.1,0-0.2c0-0.1,0-0.2,0.1-0.2c0,0,0-0.1,0-0.1c0-0.1,0.1-0.2,0.2-0.3
				c0,0,0.1-0.1,0.1-0.1c0-0.1,0.1-0.1,0.1-0.2c0.2-0.2,0.5-0.4,0.8-0.5V8.1c0-0.2-0.2-0.4-0.4-0.4h-8.5c-0.2,0-0.4,0.2-0.4,0.4
				v15.7c0,0.2,0.2,0.4,0.4,0.4h7.5c0,0,0,0,0,0C20.2,24.1,20.2,24,20.2,24z"/>
			<path class="st1" d="M23.2,9c0,0.2,0.1,0.3,0.3,0.3c0.3,0,0.6,0,0.9,0c0.3,0,0.4-0.1,0.4-0.4c0-1.3,0-2.6,0-3.9
				c0-0.3-0.1-0.4-0.4-0.4c-2.4,0-4.9,0-7.3,0c-2.4,0-4.8,0-7.3,0c-0.4,0-0.5,0.1-0.5,0.5c0,1,0,2,0,3c0,0.4-0.2,0.8,0.1,1.1
				c0.2,0.2,0.7,0,1.1,0.1c0.3,0,0.4-0.1,0.4-0.4c0-0.5,0-1,0.1-1.4c0.3-0.8,1-1.3,2-1.3c2.7,0,5.5,0,8.2,0c1.2,0,2,0.7,2.1,1.9
				C23.2,8.3,23.2,8.6,23.2,9z"/>
			<path class="st1" d="M26.9,1.5c-3.3,0-6.6,0-9.9,0c-3.3,0-6.6,0-9.9,0c-0.8,0-0.9,0.1-0.9,0.9c0,2.8,0,5.6,0,8.4
				c0,0.3,0,0.5,0,0.8c0,0.4,0.2,0.6,0.7,0.7c1.2,0,2.4,0,3.6,0c0.2,0,0.3-0.1,0.3-0.3c0-0.3,0-0.6,0-0.9c0-0.2-0.1-0.3-0.3-0.3
				c-0.6,0-1.1,0-1.7,0c-0.8,0-1-0.2-1-1c0-1.9,0-3.8,0-5.7c0-0.8,0.2-1,1-1c3.3,0,6.5,0,9.8,0c2.3,0,4.5,0,6.8,0
				c0.6,0,0.9,0.3,0.9,0.7c0,2.1,0,4.1,0,6.2c0,0.5-0.3,0.8-0.8,0.8c-0.4,0-0.7,0-1.1,0c-0.4,0-0.9-0.2-1.1,0.1
				c-0.2,0.2,0,0.7-0.1,1.1c0,0.3,0.1,0.4,0.4,0.4c1.1,0,2.2,0,3.3,0c0.7,0,0.9-0.3,0.9-0.9c0-3,0-6,0-9C27.8,1.7,27.7,1.5,26.9,1.5
				z"/>
			<path class="st0" d="M29.3,1.6C29,0.6,28.2,0,27,0c-3.3,0-6.6,0-10,0c-3.3,0-6.7,0-10,0C5.6,0,4.7,0.8,4.7,2.3c0,3.1,0,6.2,0,9.3
				c0,1.4,0.9,2.3,2.3,2.3c1.1,0,2.3,0,3.4,0c0.3,0,0.4,0.1,0.4,0.4c0,2.7,0,6.5,0,9.2c0,0.3,0,0.5,0.1,0.8c0.3,0.9,1,1.4,2.1,1.4
				c2.6,0,5.3,0,7.9,0c-0.4-0.4-0.6-0.9-0.6-1.5c0,0,0,0,0,0h-7.5c-0.2,0-0.4-0.2-0.4-0.4V8.1c0-0.2,0.2-0.4,0.4-0.4h8.5
				c0.2,0,0.4,0.2,0.4,0.4v14.2c0.2-0.1,0.4-0.1,0.6-0.1c0.3,0,0.6,0.1,0.9,0.2c0-2.6,0-5.7,0-8.1c0-0.3,0.1-0.4,0.4-0.4
				c1.1,0,2.2,0,3.3,0c1.6,0,2.5-0.8,2.5-2.5c0-3,0-6,0-9C29.4,2.1,29.3,1.8,29.3,1.6z M21.1,6.1c-2.7,0-5.5,0-8.2,0
				c-1,0-1.7,0.5-2,1.3c-0.1,0.5-0.1,0.9-0.1,1.4c0,0.3-0.1,0.4-0.4,0.4c-0.4,0-0.8,0.2-1.1-0.1C9.1,9,9.3,8.5,9.3,8.1c0-1,0-2,0-3
				c0-0.4,0.1-0.5,0.5-0.5c2.4,0,4.8,0,7.3,0c2.4,0,4.9,0,7.3,0c0.3,0,0.4,0.1,0.4,0.4c0,1.3,0,2.6,0,3.9c0,0.3-0.1,0.4-0.4,0.4
				c-0.3,0-0.6,0-0.9,0c-0.2,0-0.3-0.1-0.3-0.3c0-0.3,0-0.7,0-1C23.1,6.8,22.3,6.1,21.1,6.1z M27.8,11.4c0,0.6-0.3,0.9-0.9,0.9
				c-1.1,0-2.2,0-3.3,0c-0.3,0-0.4,0-0.4-0.4c0-0.4-0.2-0.9,0.1-1.1c0.2-0.2,0.7-0.1,1.1-0.1c0.4,0,0.7,0,1.1,0
				c0.5,0,0.8-0.3,0.8-0.8c0-2.1,0-4.1,0-6.2c0-0.5-0.3-0.7-0.9-0.7c-2.3,0-4.5,0-6.8,0c-3.3,0-6.5,0-9.8,0c-0.8,0-1,0.2-1,1
				c0,1.9,0,3.8,0,5.7c0,0.8,0.3,1,1,1c0.6,0,1.1,0,1.7,0c0.3,0,0.3,0.1,0.3,0.3c0,0.3,0,0.6,0,0.9c0,0.2-0.1,0.3-0.3,0.3
				c-1.2,0-2.4,0-3.6,0c-0.4,0-0.7-0.2-0.7-0.7c0-0.3,0-0.5,0-0.8c0-2.8,0-5.6,0-8.4c0-0.8,0.1-0.9,0.9-0.9c3.3,0,6.6,0,9.9,0
				c3.3,0,6.6,0,9.9,0c0.8,0,0.9,0.1,0.9,0.9C27.8,5.5,27.8,8.4,27.8,11.4z"/>
		</g>
	</g>
</g>
</svg>
