<?xml version="1.0" encoding="UTF-8"?>
<!DOCTYPE svg PUBLIC "-//W3C//DTD SVG 1.1//EN" "http://www.w3.org/Graphics/SVG/1.1/DTD/svg11.dtd">
<!-- Creator: CorelDRAW 2018 (64 bitů) -->
<svg xmlns="http://www.w3.org/2000/svg" xml:space="preserve" width="21.5518mm" height="15mm" version="1.1" style="shape-rendering:geometricPrecision; text-rendering:geometricPrecision; image-rendering:optimizeQuality; fill-rule:evenodd; clip-rule:evenodd"
viewBox="0 0 240.81 167.6"
 xmlns:xlink="http://www.w3.org/1999/xlink">
 <defs>
  <style type="text/css">
   <![CDATA[
    .fil0 {fill:black;fill-rule:nonzero}
   ]]>
  </style>
 </defs>
 <g id="Vrstva_x0020_1">
  <metadata id="CorelCorpID_0Corel-Layer"/>
  <g id="_2202466739888">
   <path class="fil0" d="M-0 126.96l0 3.76c1.07,1.68 1.3,6.98 9.56,8.81 5.14,1.05 11.01,-0.21 16.33,-0.9 10.43,-1.6 21.67,-3.3 32.31,-4.63 -0.44,2.61 -1.51,6.17 -2.16,8.81 -0.9,2.79 -1.6,5.52 -2.52,8.34l-3.33 12.74c-0.24,1.16 -0.24,2.23 0.94,3.07l0.66 0.64 1.93 0c2.09,-0.85 8.93,-0.85 14.11,-2.78 3.99,-1.62 6.27,-3.95 7.55,-8.57 1.38,-4.17 2.52,-8.58 3.6,-12.76 0.86,-4.17 2.02,-9.03 3.38,-12.77 6.86,-1.36 10.42,-2.9 12.95,-7.74 1.27,-2.68 2.85,-8.36 3.79,-11.71 1.74,-6.73 -1.85,-3.71 -10.78,-3.02 0.24,-1.59 7.85,-29.02 8.26,-31.23 1.58,-5.52 4.04,-11.9 -1.96,-14.1 -2.7,-1.08 -5.64,-0.85 -8.69,-0.42 -2.72,0.42 -6.32,0.64 -8.48,1.09 -0.7,0.45 -3.36,11.68 -3.58,12.11 -3.18,11.88 -6.99,24.68 -9.59,36.04 -6.98,1.15 -13.63,2.04 -20.56,2.89 -1.78,0.41 -4.04,0.83 -4.67,-0.42 -0.87,-1.54 0.21,-3.14 0.86,-4.19 3.15,-4.4 7.18,-9.43 9.8,-13.4 4.7,-6.83 10.33,-13.67 14.79,-20.06 0.65,-1.07 1.51,-2.2 2.37,-3.28 1.87,-2.85 10.57,-14.97 12.3,-16.94 1.56,-1.99 3.17,-4.62 4.67,-6.61 2.73,-3.06 8.28,-10.77 9.35,-14.07 2.52,-7.68 -2.82,-12.09 -10.43,-11.44 -3.18,0.2 -6.98,0.89 -10.27,1.55 -1.82,0.21 -1.18,0.21 -2.91,2.64 -4.67,6.37 -10.02,13.85 -14.73,20 -5.84,7.5 -11.59,16.28 -17.17,23.53 -6.08,7.96 -13.63,18.5 -19.69,26.84 -4.66,6.65 -9.99,13.67 -14.65,20.27 -2.97,4.19 -2.54,5.92 -3.39,7.93z"/>
   <path class="fil0" d="M188.14 72.38c1.75,-3.3 1.07,-8.12 -0.42,-11.44 -1.35,-3.06 -3.6,-5.71 -6.29,-7.43 -6.24,-3.79 -16.69,-0.93 -23.44,1.05 -7.14,2.21 -13.38,5.31 -19.13,8.58 -2.95,1.78 -5.64,3.55 -8.28,5.52 -8.28,6.38 -14.05,12.3 -19.23,22.2 -10.49,20.21 -9.62,45.31 11.6,57.87 12.32,7.05 32.14,6.35 46.01,0.85 13.65,-5.65 21.65,-14.9 26.81,-28.35 2.16,-5.76 5.54,-16.45 1.3,-22.26 -4.46,-6.13 -13.81,-3.92 -22.09,-2.82 -4.24,0.46 -8.28,1.08 -12.52,1.73 -9.14,1.33 -11.37,1.55 -14.45,12.97 -0.91,3.55 -2.31,7.32 -2.97,10.84l31.01 -4.4c-0.21,1.72 -3.79,6.09 -4.68,7.18 -6.4,7.09 -14.66,11.27 -24.74,9.97 -10.5,-1.6 -16.93,-7.69 -18.78,-16.93 -0.44,-3.54 -0.44,-7.09 0.21,-10.42 1.64,-6.73 4.93,-11.39 8.49,-15.12 12.95,-13.88 31.25,-18.5 51.59,-19.6z"/>
   <path class="fil0" d="M240.81 59.4l0 -3.07c-0.42,-0.86 -0.85,-4.4 -1.3,-5.96 -2.74,-11.84 -8.93,-22.82 -17.41,-31.41 -7.19,-7.07 -15.91,-12.57 -25.89,-16.11 -1.84,-0.63 -3.81,-1.06 -5.61,-1.51 -0.94,-0.23 -5.18,-1.1 -5.63,-1.34l-3.31 0c-2,1.12 -4,0.66 -5.17,4.2 -3.76,13.83 -3.06,8.14 11.64,12.08 10.23,2.68 17.84,7.92 23.39,13.66 8.05,8.13 12.94,18.24 14.35,31.45 0.22,3.53 -0.72,5.94 3.76,5.3 4.46,-0.66 8.7,-0.44 10.32,-3.55 0.63,-1.28 0.42,-2.64 0.85,-3.74z"/>
   <path class="fil0" d="M202.6 69.73c1.4,0.93 2.75,0.22 4.69,0 4.71,-0.64 9.41,-0.41 8.27,-8.8 -1.95,-17.58 -15.1,-32.97 -34.6,-36.07 -11.09,-1.96 -10.65,3.1 -12.47,9.7 -1.8,6.17 5.84,0.21 16.93,5.03 8.46,3.76 14.11,10.56 16.31,19.14 1.34,5.52 0.21,8.79 0.87,10.99z"/>
  </g>
 </g>
</svg>
